<?xml version="1.0" encoding="utf-8"?>
<!-- Generator: Adobe Illustrator 27.0.0, SVG Export Plug-In . SVG Version: 6.00 Build 0)  -->
<svg version="1.1" id="Livello_1" xmlns="http://www.w3.org/2000/svg" xmlns:xlink="http://www.w3.org/1999/xlink" x="0px" y="0px"
	 viewBox="0 0 886.7 274.6" style="enable-background:new 0 0 886.7 274.6;" xml:space="preserve">
<style type="text/css">
	.st0{fill:#FFFFFF;}
	.st1{fill:#E02484;}
</style>
<g>
	<g>
		<path class="st0" d="M345,151c1.1,1.3,2,2.8,2.6,4.7c0.6,1.8,0.9,3.8,0.9,5.8c0,4.6-1.3,8.2-3.8,10.7c-2.5,2.5-6,3.8-10.6,3.8
			h-29.9v8.8h-5.6V176h-10.8v-6.7h10.8v-15h5.6v15h29.5c2.9,0,5.2-0.7,6.7-2.2c1.5-1.5,2.3-3.6,2.3-6.3c0-1.4-0.2-2.7-0.7-4
			c-0.4-1.3-1.1-2.4-1.9-3.3L345,151z"/>
		<path class="st0" d="M298.5,98.3l49.4,22v6.9l-49.4,21.9v-7l42.1-18.5l-42.1-18.7V98.3z"/>
	</g>
</g>
<g>
	<path class="st1" d="M50.8,74.1c0,1.3,0,2.6,0,3.9c0,47.7,0,95.5,0,143.2c0,1.5-0.4,4.2-0.9,4.2c-2.7,0.4-5.4,0.1-8.1,0
		c-0.2,0-0.6-0.9-0.6-1.4c-0.1-1-0.1-2.1-0.1-3.1c0-62.3,0-124.7,0-187c0-1.5,0-2.9,0-5c3.4,0,6.6-0.2,9.7,0.1
		c0.9,0.1,1.8,1.8,2.4,2.9C65.7,58.4,77.9,85,90.9,111.2c14.1,28.5,29.6,56.2,48.9,81.6c0.9,1.1,1.8,2.2,3.1,3.8
		c0.8-1.6,1.3-2.7,1.8-3.8c24-53.3,48-106.6,71.9-159.9c1.3-3,2.9-4.1,6.1-3.9c4.7,0.3,9.4,0.3,14,0c3.1-0.2,3.9,1,3.8,3.9
		c-0.2,3.5-0.1,7.1-0.1,10.6c0,58.8,0,117.6,0,176.4c0,6.9,0.9,6.1-6.3,6.1c-4,0-8-0.2-12,0.1c-2.8,0.1-3.7-0.8-3.7-3.7
		c0.1-16.2,0.1-32.4,0.1-48.6c0-38.9,0-77.9,0-116.8c0-1.2,0-2.4,0-3.6c-0.3-0.1-0.5-0.2-0.8-0.3c-0.5,1-1.1,2.1-1.6,3.1
		c-21.8,48.4-43.6,96.8-65.4,145.2c-1,2.3-1,3.8,0.9,5.7c13,13.4,28.6,22.5,45.8,29.3c30.4,11.8,61.1,12.3,92,2.5
		c41.4-13.1,68-46.7,71.4-90.4c0.9-11.2,1.5-22.8-0.5-33.8c-7-38.6-31.6-61.6-68.4-72.3c-7.4-2.1-15.3-2.5-23-3.4
		c-2.6-0.3-3.3-1-3.2-3.5c0.2-7.3-1.1-6.8,6.5-6.4c31.2,1.7,59,11.6,82,33.3c19.1,18,29.3,40.1,29.4,66.7c0,15.8-1.2,31.3-6.4,46.2
		c-10.3,29.5-30.3,50.7-58.2,63.7c-42.3,19.7-86,22.4-130.2,6.6c-24.1-8.6-43.3-24.6-60.2-43.5c-19.8-22.2-35.4-47.3-49.4-73.5
		c-9-16.9-17.2-34.3-25.8-51.4c-0.5-1.1-1.1-2.1-1.6-3.2C51.4,74,51.1,74.1,50.8,74.1z"/>
</g>
<g>
	<g>
		<path class="st0" d="M450.4,115.7v45.9h-4.7v-36.8l-18,30.9h-2.3l-18-30.7v36.6h-4.7v-45.9h4l20,34.1l19.8-34.1H450.4z"/>
		<path class="st0" d="M493.4,127.1l-17.3,38.7c-1.4,3.2-3,5.5-4.9,6.9c-1.8,1.4-4,2-6.6,2c-1.7,0-3.2-0.3-4.7-0.8
			c-1.4-0.5-2.7-1.3-3.7-2.4l2.2-3.5c1.7,1.8,3.9,2.6,6.3,2.6c1.6,0,2.9-0.4,4-1.3c1.1-0.9,2.2-2.4,3.1-4.5l1.5-3.3L458,127.1h4.9
			l13,29.3l13-29.3H493.4z"/>
		<path class="st0" d="M518.2,115.7h18.7c4.9,0,9.1,1,12.9,2.9c3.7,1.9,6.6,4.7,8.7,8.1c2.1,3.5,3.1,7.4,3.1,11.9
			c0,4.5-1,8.4-3.1,11.9s-4.9,6.2-8.7,8.1c-3.7,1.9-8,2.9-12.9,2.9h-18.7V115.7z M536.6,157.4c4,0,7.5-0.8,10.6-2.4
			c3-1.6,5.4-3.8,7-6.6s2.5-6.1,2.5-9.7s-0.8-6.9-2.5-9.7c-1.7-2.8-4-5-7-6.6c-3-1.6-6.5-2.4-10.6-2.4H523v37.5H536.6z"/>
		<path class="st0" d="M580.7,128.6c2.2-1.2,4.8-1.8,8-1.8v4.5l-1.1-0.1c-3.6,0-6.5,1.1-8.5,3.3s-3.1,5.4-3.1,9.4v17.6h-4.7v-34.5
			h4.5v6.8C577,131.5,578.6,129.8,580.7,128.6z"/>
		<path class="st0" d="M619.6,130.2c2.4,2.3,3.6,5.6,3.6,10v21.4h-4.5v-5.4c-1,1.8-2.6,3.2-4.6,4.2c-2,1-4.5,1.5-7.3,1.5
			c-3.9,0-6.9-0.9-9.2-2.8s-3.4-4.3-3.4-7.3c0-2.9,1.1-5.3,3.2-7.1c2.1-1.8,5.5-2.7,10.1-2.7h11V140c0-3-0.8-5.2-2.5-6.8
			c-1.7-1.6-4.1-2.3-7.3-2.3c-2.2,0-4.3,0.4-6.3,1.1c-2,0.7-3.7,1.7-5.2,3l-2.1-3.5c1.8-1.5,3.9-2.6,6.3-3.4c2.5-0.8,5-1.2,7.7-1.2
			C613.7,126.8,617.2,127.9,619.6,130.2z M614.3,156.4c1.9-1.2,3.3-2.9,4.2-5.2v-5.6h-10.8c-5.9,0-8.9,2.1-8.9,6.2
			c0,2,0.8,3.6,2.3,4.8c1.5,1.2,3.7,1.7,6.4,1.7C610.2,158.3,612.4,157.7,614.3,156.4z"/>
		<path class="st0" d="M689.1,130.6c2.5,2.5,3.7,6.2,3.7,11v20h-4.7V142c0-3.6-0.9-6.3-2.6-8.2c-1.7-1.9-4.2-2.8-7.3-2.8
			c-3.6,0-6.4,1.1-8.5,3.3c-2.1,2.2-3.1,5.3-3.1,9.2v18.1H662V142c0-3.6-0.9-6.3-2.6-8.2c-1.7-1.9-4.2-2.8-7.4-2.8
			c-3.5,0-6.4,1.1-8.4,3.3c-2.1,2.2-3.1,5.3-3.1,9.2v18.1h-4.7v-34.5h4.5v6.3c1.2-2.1,2.9-3.7,5.1-4.9c2.2-1.1,4.7-1.7,7.5-1.7
			c2.9,0,5.4,0.6,7.5,1.8c2.1,1.2,3.7,3,4.8,5.4c1.3-2.3,3.1-4.1,5.5-5.3c2.4-1.3,5.1-1.9,8.2-1.9
			C683.2,126.8,686.6,128.1,689.1,130.6z"/>
		<path class="st0" d="M727.9,130.2c2.4,2.3,3.6,5.6,3.6,10v21.4h-4.5v-5.4c-1,1.8-2.6,3.2-4.6,4.2c-2,1-4.5,1.5-7.3,1.5
			c-3.9,0-6.9-0.9-9.2-2.8s-3.4-4.3-3.4-7.3c0-2.9,1.1-5.3,3.2-7.1c2.1-1.8,5.5-2.7,10.1-2.7h11V140c0-3-0.8-5.2-2.5-6.8
			c-1.7-1.6-4.1-2.3-7.3-2.3c-2.2,0-4.3,0.4-6.3,1.1c-2,0.7-3.7,1.7-5.2,3l-2.1-3.5c1.8-1.5,3.9-2.6,6.3-3.4c2.5-0.8,5-1.2,7.7-1.2
			C722.1,126.8,725.5,127.9,727.9,130.2z M722.7,156.4c1.9-1.2,3.3-2.9,4.2-5.2v-5.6h-10.8c-5.9,0-8.9,2.1-8.9,6.2
			c0,2,0.8,3.6,2.3,4.8c1.5,1.2,3.7,1.7,6.4,1.7C718.5,158.3,720.8,157.7,722.7,156.4z"/>
		<path class="st0" d="M762.4,115.7h4.9v41.7H793v4.2h-30.6V115.7z"/>
		<path class="st0" d="M800,118.5c-0.7-0.7-1-1.4-1-2.4c0-0.9,0.3-1.6,1-2.3c0.7-0.7,1.5-1,2.4-1c1,0,1.8,0.3,2.4,1
			c0.7,0.6,1,1.4,1,2.3c0,1-0.3,1.8-1,2.4s-1.5,1-2.4,1C801.5,119.5,800.7,119.2,800,118.5z M800.1,127.1h4.7v34.5h-4.7V127.1z"/>
		<path class="st0" d="M824.6,118.2c-1,1.1-1.5,2.7-1.5,4.9v4.1h10.6v3.9h-10.5v30.6h-4.7V131h-6.2v-3.9h6.2v-4.3
			c0-3.2,0.9-5.6,2.7-7.5c1.8-1.8,4.4-2.8,7.7-2.8c1.3,0,2.6,0.2,3.8,0.6c1.2,0.4,2.3,0.9,3.1,1.6l-1.6,3.5
			c-1.4-1.1-3.1-1.7-5.1-1.7C827.1,116.5,825.6,117.1,824.6,118.2z"/>
		<path class="st0" d="M869.4,145.8h-28.9c0.3,3.6,1.6,6.5,4.1,8.7c2.5,2.2,5.6,3.3,9.5,3.3c2.1,0,4.1-0.4,5.9-1.1
			c1.8-0.8,3.3-1.9,4.7-3.4l2.6,3c-1.5,1.8-3.4,3.2-5.7,4.2c-2.3,1-4.8,1.4-7.6,1.4c-3.5,0-6.7-0.8-9.4-2.3
			c-2.7-1.5-4.9-3.6-6.4-6.3c-1.5-2.7-2.3-5.7-2.3-9.1c0-3.4,0.7-6.4,2.2-9.1c1.5-2.7,3.5-4.7,6-6.2c2.6-1.5,5.4-2.2,8.6-2.2
			c3.2,0,6.1,0.7,8.6,2.2c2.5,1.5,4.5,3.6,6,6.2c1.4,2.6,2.2,5.7,2.2,9.1L869.4,145.8z M844.4,134c-2.3,2.1-3.5,4.9-3.8,8.3H865
			c-0.3-3.4-1.6-6.2-3.8-8.3c-2.3-2.1-5.1-3.2-8.4-3.2C849.4,130.8,846.6,131.9,844.4,134z"/>
	</g>
</g>
</svg>
